<svg xmlns="http://www.w3.org/2000/svg" viewBox="0 0 204.74 187.56"><title>alert</title><path d="M204.74,101c-1.52,8-4,15.61-9.65,21.82-1.8,2-3.54,4.73-6.48,2.24-2.77-2.35-.45-4.51,1.12-6.46,9.47-11.73,10.75-25.36,3.43-38.16a47.18,47.18,0,0,0-4.27-5.74c-1.46-1.84-2.37-3.76-.23-5.58s3.86-.59,5.44,1.17a38.94,38.94,0,0,1,10,20.84,10.79,10.79,0,0,0,.62,1.87Z"/><path d="M160.89,87c-.47,11.34-.69,22.66,2.71,33.68a79.1,79.1,0,0,0,16.35,29,24.94,24.94,0,0,1,2.92,3.28c.93,1.6,2.27,3.6,1.93,5.09-.26,1.16-2.74,2.29-4.38,2.59-13.24,2.36-26.48,4.68-39.78,6.67-4.52.68-7.64,2-10.59,6.13-14.36,19.86-42.78,18.56-55.91-2a8,8,0,0,0-4.82-3.21c-14.27-2.58-28.61-4.81-42.89-7.37-2-.36-4.6-1.48-5.42-3-.56-1.09,1.07-3.88,2.39-5.29,14.62-15.59,21-34.19,20.91-55.34-.06-10.13-.39-20.29.3-30.37,1.58-23.17,14.7-37.78,35.79-45.83,3.32-1.26,5-2.43,5.29-6.42C86.18,6.39,93.79.09,102.1,0c8.52-.09,16.34,6.15,16.88,14.39.26,3.94,2,4.9,5.21,6C143,26.73,155.72,39.24,159.4,59.07,161.08,68.15,160.46,77.64,160.89,87Zm13.61,67c-.3-.42-.64-1-1.05-1.48-13.86-16.55-20.21-35.69-19.89-57.19.13-9.19.15-18.39,0-27.59-.29-14.28-6.39-25.76-17.92-34C121.9,23.85,106.34,22,90.21,25.15,66.67,29.74,50.18,48.48,51.07,72c.39,10.38.24,20.8-.11,31.18a77.15,77.15,0,0,1-9.69,35.91c-3,5.26-6.51,10.19-9.57,14.92A276.69,276.69,0,0,0,174.5,154Zm-50.92,16.62H82.44C92.58,184.09,112.93,184.16,123.58,170.59ZM112.41,17.28c-.5-6.37-5-10.83-10.43-10.58s-9.48,4.68-9.65,10.58Z"/><path d="M0,96.65a39.4,39.4,0,0,1,10.27-26c1.62-1.78,3.23-3.57,5.67-1.6s1.27,4-.36,5.85c-6.69,7.45-10,16.23-8.25,26.06.94,5.32,3.74,10.34,5.91,15.4.6,1.41,2.38,2.36,2.85,3.78s.07,3.29.05,5c-1.75-.27-4.14.1-5.14-.91C3.67,116.74.25,107.57,0,96.65Z"/><path d="M17.44,96.58A28.88,28.88,0,0,1,25,77c1.63-1.83,3.71-2.91,5.35-.86.83,1,.7,4.08-.23,5.1-7.94,8.69-7.76,22.31,0,30.53,1.59,1.7,2.42,3.8.3,5.58-2.33,2-4.07.42-5.69-1.45A28.85,28.85,0,0,1,17.44,96.58Z"/><path d="M187.24,96.46a28.7,28.7,0,0,1-7.19,19.33c-1.6,1.85-3.3,3.53-5.68,1.62s-1.12-4,.36-5.89c6.79-8.88,7.62-18.12,2.39-26.6-.9-1.46-2.49-2.63-3-4.18s.1-3.27.21-4.93c1.65.27,3.9-.06,4.85.9A27.42,27.42,0,0,1,187.24,96.46Z"/><path d="M60.88,66.78C62.11,53.49,72.45,41.21,86.94,36.6a51.17,51.17,0,0,1,34.85,1c2.39.92,5.32,1.74,4.06,5.15s-4,2.15-6.43,1.25c-13.09-4.83-25.89-4.53-38,2.71-7.35,4.37-12,10.77-13,19.55a8.58,8.58,0,0,1-1.64,4.3c-.52.65-2.66,1-3.18.46C62.39,69.94,61.75,68.24,60.88,66.78Z"/></svg>