<svg xmlns="http://www.w3.org/2000/svg" viewBox="0 0 204.8 204.8"><title>exhaust</title><path d="M55.2,0C62.78,1.67,70,4,75.92,9.46,86.49,19.2,90.68,31.29,87.79,45.2,85,58.77,76.69,68.47,63.31,72.83,41.59,79.9,20.35,68,14.69,46,9.51,25.89,24.07,3.85,44.57.71A22.75,22.75,0,0,0,47.2,0ZM51.76,7C35.1,6.47,21.19,19.8,20.63,36.79a30.58,30.58,0,0,0,61.14,1.52C82.32,21.4,69,7.46,51.76,7Z"/><path d="M0,174.4l6.85-.32V204.8H0Z"/><path d="M129.6,0V23.69h-6.4V0Z"/><path d="M7.2,0,6.6,10.11,0,10.4V0Z"/><path d="M0,68l6.55.43v10H0Z"/><path d="M0,160.8l6.56-.4v6.8H0Z"/><path d="M51.3,180.82c-20.41.11-37.39-16.7-37.64-37.26-.25-20.39,17.22-37.9,37.63-37.74s37.43,17.12,37.45,37.52S71.79,180.72,51.3,180.82Zm-2.2-7.32c-6.75-7.88-13-15.31-19.39-22.57-2.42-2.74-2.73-5-.4-8,6.12-7.89,12-16,18-23.94,2.85-3.78,4.9-3.76,7.79.06,5.78,7.65,11.51,15.34,17.26,23,3.49,4.67,3.45,5.15-.3,9.53-6.13,7.15-12.24,14.31-18.53,21.67,12.1.92,26.74-11.16,28-26.32,1.53-18.26-11-33.13-28.62-34.09A30.49,30.49,0,0,0,20.61,143C20.36,159,33.64,173.61,49.1,173.5Zm2.09-48.33L35.11,146.63,51.22,165.4l16.07-18.79Z"/><path d="M204.77,167.29c0,20.57-17.32,37.72-37.75,37.48s-37.35-17.2-37.32-37.55,17.52-37.85,37.77-37.52C188,130,204.81,147,204.77,167.29Zm-37.48,30.57a30.61,30.61,0,1,0-30.64-30.37A30.61,30.61,0,0,0,167.29,197.86Z"/><path d="M136.59,109.14A37.45,37.45,0,1,1,174,71.74,37.62,37.62,0,0,1,136.59,109.14ZM167.2,71.76c.05-16.81-14.14-31-30.78-30.83A31.2,31.2,0,0,0,105.81,71.6c-.16,16.66,14.09,30.87,30.83,30.77A30.92,30.92,0,0,0,167.2,71.76Z"/><path d="M181.1,27.46h6.35V57.74H181.1Z"/><path d="M102.73,147H109v30.28h-6.28Z"/><path d="M198.28,99.25h6.25v30.21h-6.25Z"/><path d="M198.24,3.55h6.56V27.09h-6.56Z"/><path d="M78.77,85.57h6.36V98.82H78.77Z"/><path d="M10.61,95.72h6.08V109H10.61Z"/><path d="M109,139.88h-6.25v-6.49H109Z"/><path d="M181,20.26V13.91h6.47v6.35Z"/><path d="M204.57,91.94h-6.35V85.72h6.35Z"/><path d="M10.46,88.53V82.15h6.22v6.38Z"/><path d="M85.23,72.06v6.09H78.72V72.06Z"/><path d="M64.66,184.8v6.11H58.51C57.35,184.13,58,183.47,64.66,184.8Z"/><path d="M126.21,191.39v5.83c-6.51,1.94-7.47,1.08-6.35-5.83Z"/><path d="M64.53,204.58H58.25v-6.34h6.28Z"/><path d="M60,57.82c-1.8-.33-5.76,2.46-5.79-3.16h-5.5c-4.23,8.19-7.37.57-11-.73v-5.5l1.13.33c.69-1.54,1.89-3,2-4.62A107.33,107.33,0,0,0,40.8,31c-.1-1.56-1.25-3.05-1.92-4.57l-1.19.33v-4.4c1.49-1.91,2.17-3.41,3.33-4.11a7.49,7.49,0,0,1,4.58-1.05c1.13.17,2.07,1.63,3.78,3.11,1.48-.1,4.6,1.83,5.83-2.68.2-.7,3.83-.46,5.87-.66L60.47,18a36.87,36.87,0,0,0,3.89,4.68,11,11,0,0,1,2.77,12.72,5.87,5.87,0,0,0,0,4.13,11,11,0,0,1-3,13C62.71,53.8,61.75,55.56,60,57.82Zm-12-10c3.53,0,6.73.35,9.79-.16,1.35-.23,2.4-2.21,3.58-3.4-1.14-1.09-2.17-2.95-3.45-3.13C54.75,40.64,51.45,41,48,41Zm0-20.5v6.82c3.46,0,6.77.31,10-.15,1.26-.18,2.28-2.07,3.4-3.19-1.22-1.16-2.3-3.09-3.68-3.32C54.68,26.94,51.48,27.29,48.05,27.29Z"/><path d="M56.37,143.52l2.93,5.91c-7,5.08-8.83,5.09-16.27,0l3-5.88C49.46,146.46,52.86,146.62,56.37,143.52Z"/><path d="M170.67,174.41V187.5h-6.39a9.06,9.06,0,0,1-.35-1.81c0-10.23,0-20.46-.05-30.69,0-3.4,1.4-4.87,4.77-4.77,3.85.11,7.71-.1,11.55.14a11.77,11.77,0,0,1,1.09,23.35C177.92,174.22,174.47,174.18,170.67,174.41Zm.24-17.34v10.12c2.94,0,5.6.12,8.24,0,2.88-.15,4.77-1.66,5-4.67.21-3.24-1.66-5-4.67-5.36C176.71,156.85,173.93,157.07,170.91,157.07Z"/><path d="M160.18,187.6h-6.35v-37h6.35Z"/><path d="M132.1,88.72c-9.17.06-9.18.06-9.17-9.14,0-6.65.07-13.29,0-19.94-.06-3.51,1.41-5.22,5-5.09s7.21-.1,10.74.35a16.86,16.86,0,0,1,15,17.26A17.12,17.12,0,0,1,137.28,88.7C135.56,88.82,133.82,88.72,132.1,88.72Zm-2.28-7.07c6.35.49,12.33,1,15.73-5.44a9.3,9.3,0,0,0-1.15-10.8c-3.94-4.93-9.24-4.08-14.47-3.61v6.48h9.8v7h-9.91Z"/></svg>