<svg xmlns="http://www.w3.org/2000/svg" viewBox="0 0 204.8 203.61"><title>startup</title><path d="M26,191.34c3.48-.8,7.11-1.2,10.4-2.49,9.12-3.58,12.19-12.15,15.53-20.25.44-1.07-.93-3.82-2.1-4.34s-3.81.25-4.67,1.35c-1.78,2.25-2.82,5.1-4.13,7.71-3.7,7.33-9.16,10.5-17.14,9.58a4.08,4.08,0,0,1-2.8-2.54,15.77,15.77,0,0,1,8.38-16.71c2.93-1.57,6.17-2.69,8.79-4.66,1.17-.88,1.86-3.56,1.42-5-.31-1-3.32-2.3-4.42-1.82C21.9,157.9,14,161.46,13,178.35,12.51,186.85,17.35,191.68,26,191.34Z"/><path d="M0,100.22c13.9-13.86,25.83-30,44.08-38.86,10-4.88,20.71-6.73,31.79-6.49,5.73.13,11.46.26,17.18.6A5.67,5.67,0,0,0,98.41,53c9.32-12.08,19.59-23.21,32.37-31.79A120,120,0,0,1,184.84,1C187.22.74,189.62.56,192,.2c5.81-.89,10.11,1.14,12.81,6.42v8c-.9,5.36-1.59,10.76-2.72,16.07-6.43,30.21-22.43,54.36-47,72.74-4.8,3.59-6.52,7.23-6.43,13.14A161.8,161.8,0,0,1,147,145.19c-2.2,13.34-9.17,24.57-18.7,34.14-7.24,7.27-14.42,14.6-21.83,21.69-1.33,1.27-4,2.48-5.39,1.94s-2.56-3.25-2.68-5.09c-1-14.62-1.63-29.26-2.4-43.89-.06-1.14-.19-2.28-.34-4-3.19,2.67-6.14,3.11-9.38.92-.58-.4-2.25.22-3,.84-3.88,3-7.47,6.48-11.52,9.25-1.54,1.06-4.44,1.58-6,.85C55,157,47.37,148.8,42,138.46c-1.3-2.49-.75-4.52,1-6.55,3.56-4.13,7-8.34,10.68-12.71-1.6-3.47-4.75-6.93.32-11.27-8.46-.47-15.71-.88-23-1.27-8.38-.44-16.77-.7-25.13-1.39-2-.17-3.91-1.73-5.86-2.65Zm70.38,28.11a32.29,32.29,0,0,1,2.88-4.18c5.79-5.89,11.65-11.72,17.52-17.53,1.84-1.84,4-2.4,6-.36s1.42,4.12-.36,6c-.91,1-1.87,1.89-2.82,2.83L75.43,133.18c4.18,3.08,8,5.72,11.6,8.61,2.29,1.84,3.91,1.51,6.17-.25,19.39-15.2,38.93-30.22,58.36-45.38C179,74.73,194,46.59,196.71,11.86c.21-2.71-.39-4.1-3.4-3.68-2.5.36-5,.52-7.54.82-26.5,3.2-49.83,13.75-67.57,33.56-19.89,22.21-38.13,45.89-57,69a4,4,0,0,0-.14,3.68C63.74,119.35,66.73,123.26,70.38,128.33ZM13.51,96.4l.78,1.35C27.83,98.47,41.38,99,54.9,100c3.77.28,6.29-.57,8.35-3.74A88.76,88.76,0,0,1,69,89.11L89.74,63.53c-4.93-.22-9.13-.45-13.33-.6-12.42-.43-24.55,1.62-34.58,9S22.9,88.18,13.51,96.4ZM140,115.34c-11.75,9.12-23.53,18.2-35.2,27.43-.8.63-1.13,2.31-1.09,3.48.35,9.18.82,18.36,1.3,27.53.27,5.22.63,10.43,1,15.54C130,170.49,145.49,147.88,140,115.34Zm-82.63,12C55.72,129.25,53.21,132,51,135c-.54.73-.35,2.5.18,3.41a39.17,39.17,0,0,0,14.55,14.45,3.79,3.79,0,0,0,3.38,0c3-2.19,5.74-4.7,7.25-6Z"/><path d="M0,197.82c.4-.31.81-.61,1.2-.94,2-1.77,4.34-1.89,5.73.35a5.34,5.34,0,0,1-.1,4.86C5.32,204.24,3,204,1,202.18c-.38-.35-.7-.78-1-1.16Z"/><path d="M26,191.34c-8.65.34-13.49-4.49-13-13,1-16.89,8.9-20.45,22.26-26.19,1.1-.48,4.11.8,4.42,1.82.44,1.45-.25,4.13-1.42,5-2.62,2-5.86,3.09-8.79,4.66a15.77,15.77,0,0,0-8.38,16.71,4.08,4.08,0,0,0,2.8,2.54c8,.92,13.44-2.25,17.14-9.58,1.31-2.61,2.35-5.46,4.13-7.71.86-1.1,3.49-1.88,4.67-1.35s2.54,3.27,2.1,4.34c-3.34,8.1-6.41,16.67-15.53,20.25C33.11,190.14,29.48,190.54,26,191.34Z"/><path d="M147.44,75.68A17,17,0,1,1,164.3,58.57,16.85,16.85,0,0,1,147.44,75.68Zm8.76-17a8.92,8.92,0,1,0-8.71,9A8.81,8.81,0,0,0,156.2,58.64Z"/><path d="M106.62,92c1.91,2.49,3.55,3.75,3.89,5.29.55,2.42-1.13,4.09-3.58,4.17s-4.24-1.46-3.86-3.91C103.31,95.94,104.87,94.58,106.62,92Z"/></svg>