<svg xmlns="http://www.w3.org/2000/svg" viewBox="0 0 256 239.91"><title>system</title><path d="M0,110.94a54.83,54.83,0,0,1,6.54-2.33c3.55-.79,4.5-3,5.82-6.29C15.69,94.07,10,90.63,4.91,86.49L10,76.24a20.78,20.78,0,0,1,4.46.73c5.54,2.23,9.23.27,12.64-4.32,2-2.75,3.35-4.75,2-8.37-3-7.92-2.79-8,7.32-13A28.94,28.94,0,0,1,40.6,55c2.86,3.64,6,3.21,10.06,2.08,5.21-1.43,8.18-4,8.2-9.39,0-4.92,3.32-4.79,6.77-5s6.52-.37,7.4,4.23c.45,2.35,1.28,5.71,3,6.52a24,24,0,0,0,11.1,2.27c1.86-.07,4-2.76,5.31-4.7,2.32-3.35,4.72-3.42,7.93-1.45,2.84,1.74,6.39,2.22,4.9,7.42-2,6.93.72,11.7,7.33,15a5.72,5.72,0,0,0,3.69-.1c2.71-.74,5.35-1.74,8.26-2.71,1.16,1.5,2.33,2.89,3.35,4.38s1.9,3.13,2.92,4.82c-2.32,4.84-8.79,7.22-6,15.21,2.66,7.67,8.38,7.19,13.89,8.76.17,1.31.36,2.44.47,3.57.74,7.77.74,7.77-6.63,10.26-5.8,2-8,13-3.26,16.92,3.39,2.85,6.64,5.07,3.28,10.47-2.31,3.73-4.23,5.36-8.58,3.81-2-.71-5.16-1.24-6.5-.2a24.3,24.3,0,0,0-7.26,8.7c-.83,1.87.72,5.16,1.86,7.48,2.13,4.33-1.21,5.55-3.69,7.23s-4.52,3.55-7.72.46q-8.16-7.91-16.86-1.35c-1.72,1.29-2.4,4.57-2.68,7-.46,4.11-2.69,5.21-6.33,5.21-3.41,0-6.68,1-8-4.12-1.66-6.7-7.17-10.23-13.93-9-2.31.43-4.61,3.12-6.12,5.32-2.95,4.26-5.66,1.51-8.5.28s-5.07-2.49-3.87-6.64c2-6.84-1-12.78-7.35-15.26-1.54-.6-4,0-5.59.92-5,2.8-8,1-10.26-3.56-.58-1.19-1.33-2.31-2.2-3.82a18.92,18.92,0,0,1,2.64-3.27c4.58-3.7,4.81-7.81,2.64-13.13-1.5-3.69-3.11-5.73-7.2-6.16-2.83-.31-6.64,0-7.07-4.52Zm108.3-1.15a38.61,38.61,0,1,0-77.07,4.76c1.71,21.56,20.55,38.09,40.71,36.16C94.05,148.6,110.21,130.41,108.3,109.79Z"/><path d="M256,191.94a8.22,8.22,0,0,0-1,2.15c-.66,4.28-2.74,6-7.37,5.75-7.57-.42-12.23,7.9-8.49,14.51,2.47,4.39.62,9.87-4.11,11.27-1.13.33-2.79-.53-4-1.21-8.78-4.89-15.85-.75-16,9.44,0,1.13-.13,2.27-.22,3.6l-9.66,2.46c-3.46-3.72-3.82-9.5-11.39-9.44-7.42.06-8.18,5.43-11.42,9.38a47.54,47.54,0,0,0-5.26-1.22c-4.16-.51-5.2-2.75-5-6.79.33-7.9-7.83-12.45-14.77-8.53-1.43.81-2.89,1.56-4.51,2.42-1.47-1.34-2.75-2.64-4.17-3.76-2.9-2.29-2.82-4.47-.84-7.6,4.75-7.5.06-15.31-8.93-15.37h-4.24a21.35,21.35,0,0,0-.88-2.92c-2.37-5-1.49-8.41,4.12-10.79,4.85-2.06,4.66-12.4.15-15.26-3-1.89-7.29-2.56-5.19-8.26,1.41-3.85,2.77-5.64,7.17-5.44,7.88.36,12.49-7.86,8.62-14.77-.8-1.43-1.57-2.87-2.4-4.38.85-1,1.61-1.92,2.3-2.83,2.86-3.8,5.69-5,10.22-1.77,5.53,4,14.18-1.08,14.22-7.85.05-6.39.05-6.39,9.82-8.42,3.48,3,3.45,9.4,11.07,9.28,7.21-.13,8.64-4.73,11.47-9.26,1.47.28,2.88.63,4.32.79,4.83.51,6.59,2.9,6.23,7.92-.46,6.5,8.11,11.42,13.77,8.28,6.41-3.55,6.56-3.5,12.53,4.45a8.84,8.84,0,0,1-1.27,2.53c-5.3,5.36-2.44,10.23,1.07,14.81a5.94,5.94,0,0,0,4.58,1.78c5.06-.52,8.41.66,8.59,6.45,0,.55.61,1.08.94,1.61v3c-3,1.92-7.8,3.23-8.74,5.88-2.86,8.14-.07,12.08,8.74,15.12Zm-27-14.13c0-18.94-16.28-35-35.19-34.77-19.1.24-35,16.32-34.73,35.26s16.08,34.5,34.92,34.54S229,196.73,229,177.81Z"/><path d="M222.06,94.45a41.19,41.19,0,0,0-3.8,3c-2.15,2.11-3.88,2.14-6.36.12-6-4.9-13.05-2.07-14,5.61-.43,3.32-2.06,4.47-5.11,4.77-2.86.27-4.85.16-6.1-3.26-2.63-7.15-10.34-8.11-15.06-2-2,2.58-3.73,2.66-6.32,1.34-2.17-1.1-5.21-1.39-4.1-5,1.3-4.19.07-6.78-3.46-9.67-3.83-3.13-6.62-1.39-9.92-.09-.61.24-1.24.43-2.16.75-1.22-1.56-2.79-3-3.53-4.69-.57-1.33-.73-3.51,0-4.62,5.21-8,2.82-13.56-6.73-15.17-.65-.11-1.27-.35-2.28-.64-.41-2.65-.83-5.41-1.3-8.4C133,56,134,55.4,135,55c7.46-3.14,8.68-10.46,2.27-15.34-2.66-2-2.59-3.83-1.21-6.32,1.14-2,1.2-4.71,5-4.23,9,1.16,13.11-4.37,9.83-12.89-.29-.76-.56-1.53-.91-2.5,1.51-1.19,2.78-2.7,4.39-3.31s3.86-.89,5-.11c7.54,4.91,13.66,2.47,15.26-6.38.15-.81.3-1.62.49-2.7C176.56.9,178,.53,179.42.33s2.94-.22,4.45-.33c.58,1.29,1.08,2.33,1.52,3.4,3.07,7.46,10.27,8.52,15.32,2.13,1.48-1.87,2.77-3.33,5.25-1.67,2,1.32,5.81.79,5.06,4.85s-.47,7.16,3.46,10.22c4.17,3.24,7.05.89,10.5-.18.47-.14.94-.25,1.73-.46l5.13,6.8c-1.9,3.88-6.42,6.3-3.84,12.25,2.42,5.6,6.81,4.7,10.67,5.8,2.47,8,2.47,8-4.34,11.38-4,2-4.81,10.38-1,12.91,3.66,2.41,4.1,4.71,2.18,8.57-1.34,2.67-2.79,3.17-5.41,2.84-7.62-1-12.15,4.92-9.37,12C221.18,91.87,221.54,93,222.06,94.45Zm-5-40.51A31,31,0,0,0,186.34,23c-16.94-.13-31.28,14.18-31.16,31.1A31.11,31.11,0,0,0,186.05,85,30.79,30.79,0,0,0,217.07,53.94Z"/></svg>