<svg xmlns="http://www.w3.org/2000/svg" viewBox="0 0 512 448.28"><title>wallet</title><path d="M0,100.06c.12-.12.3-.21.35-.35C8.7,73.5,21.34,64.23,49.1,64.09q23-.11,46,0c6.12,0,10.06,3.14,11.32,8.55A10.14,10.14,0,0,1,100.7,84.2a18.11,18.11,0,0,1-6.8,1.13c-16.16.09-32.33,0-48.49.06-15.77,0-24.14,8.35-24.14,24.07q0,146.49,0,293C21.3,418.58,29.82,427,46,427H425c14.32,0,23.12-8.76,23.17-23,0-6.17-.1-12.33,0-18.5.14-7.23,4.41-11.79,10.8-11.79,6.16,0,10.45,4.45,10.61,11.42.16,7.16.3,14.35,0,21.5-1.1,24.07-19.46,41.54-43.68,41.59q-56.49.11-113,0l-266,0c-25.24,0-39.61-11-46.34-35.37-.08-.3-.38-.53-.58-.79Z"/><path d="M512,318.06c-.65,1.66-1.36,3.3-1.93,5-5.69,17-21.26,29-39.11,29-44.31.21-88.63.45-132.93-.1-36.59-.46-68.44-31.5-71-67.95-2.73-39.16,23.59-74.36,61.09-79.68C343.53,202.18,359.37,203,375,203c30.48-.17,61,0,91.45,0,23.23,0,37.81,10.77,44.71,33a4.56,4.56,0,0,0,.84,1.16ZM404.38,224.14c-19.82,0-39.64-.09-59.45.07a71.59,71.59,0,0,0-15.35,1.46c-26.13,6-44.26,31.05-41.27,56.53,3.3,28.19,25.14,48.55,52.94,48.7,42.46.22,84.93.11,127.4,0,13.41,0,22.21-8.88,22.27-22.29q.13-30.48,0-61c-.05-15-8.64-23.51-23.6-23.54Q435.86,224.11,404.38,224.14Z"/><path d="M383.58,106.88A19.69,19.69,0,0,0,367,86.08c-6.06-.85-12.29-.55-18.44-.69-7.6-.18-12.46-4.36-12.36-10.71s5-10.6,12.56-10.59c6.5,0,13.07-.42,19.46.45,20.31,2.77,34.52,17.64,37.09,38.07.17,1.3.46,2.58.76,4.28,6.78,0,13.42,0,20.05,0,24.13.15,42.06,17,43.42,41.18.41,7.3.25,14.66.06,22-.17,7-4.5,11.34-10.71,11.31s-10.52-4.55-10.67-11.39c-.14-6.33,0-12.66,0-19-.12-14.45-8.59-22.86-23.13-22.87q-120.19,0-240.39,0-59.48,0-118.94,0c-9,0-14.4-6.67-11.61-14.18,1.84-5,5.69-7.08,10.91-7.06,13.16.05,26.33-.29,39.48.18,5.57.2,8.59-1.82,11.59-6.27,19.09-28.31,38.43-56.44,57.77-84.57,9.87-14.36,24.35-19.61,38.92-14A39.68,39.68,0,0,1,223,8.29Q281.83,55.53,340.45,103a16.11,16.11,0,0,0,11.29,4C362.36,106.7,373,106.88,383.58,106.88Zm-245.43-.3H311c-3.95-3.18-7-5.64-10.06-8.11q-45.52-36.72-91-73.42c-7-5.62-12.42-4.87-17.8,2.26-.4.53-.78,1.08-1.16,1.63q-25.11,36.71-50.2,73.42C139.88,103.55,139.2,104.83,138.15,106.58Z"/><path d="M341.32,309.57a32,32,0,1,1,32.21-32.09A32.23,32.23,0,0,1,341.32,309.57Zm.12-21.43a10.58,10.58,0,1,0-10.52-10.78A10.35,10.35,0,0,0,341.44,288.14Z"/></svg>